<?xml version="1.0" encoding="UTF-8" standalone="no" ?>
<!DOCTYPE svg PUBLIC "-//W3C//DTD SVG 1.1//EN" "http://www.w3.org/Graphics/SVG/1.1/DTD/svg11.dtd">
<svg xmlns="http://www.w3.org/2000/svg" xmlns:xlink="http://www.w3.org/1999/xlink" version="1.1" width="1280" height="1024" viewBox="0 0 1280 1024" xml:space="preserve">
<desc>Created with Fabric.js 5.3.0</desc>
<defs>
</defs>
<g transform="matrix(1 0 0 1 640 512)" id="background-logo"  >
<rect style="stroke: none; stroke-width: 0; stroke-dasharray: none; stroke-linecap: butt; stroke-dashoffset: 0; stroke-linejoin: miter; stroke-miterlimit: 4; fill: rgb(255,254,251); fill-rule: nonzero; opacity: 1;"  paint-order="stroke"  x="-640" y="-512" rx="0" ry="0" width="1280" height="1024" />
</g>
<g transform="matrix(1.9211538461538462 0 0 1.9211538461538462 640 410.1372433795346)" id="logo-logo"  >
<g style=""  paint-order="stroke"   >
		<g transform="matrix(2.319604755234301 0 0 2.3196047552343013 -43.11872897983329 -0.00007932945831612415)"  >
<path style="stroke: none; stroke-width: 1; stroke-dasharray: none; stroke-linecap: butt; stroke-dashoffset: 0; stroke-linejoin: miter; stroke-miterlimit: 4; fill: rgb(0,134,135); fill-rule: nonzero; opacity: 1;"  paint-order="stroke"  transform=" translate(-31.4111740875, -49.999965750000015)" d="M 38.2343063 34.656826 C 36.7267761 35.7247391 34.6782112 35.545452100000006 33.3633117 34.230552700000004 L 31.5597419 32.427047800000004 C 30.8788394 31.746147200000003 29.770934999999998 31.746147200000003 29.090064899999998 32.4270173 L 21.4685477 40.0485345 L 22.0332907 40.6132775 C 22.5547026 41.1346894 22.554734999999997 41.9830933 22.033324999999998 42.504505200000004 L 20.036464499999997 44.5013657 C 19.515052599999997 45.0227776 18.6666143 45.0227776 18.1452024 44.5013657 L 17.5804594 43.9366227 L 14.978172099999998 46.53891 L 16.4594477 48.0201875 C 17.239991999999997 48.8007318 17.239991999999997 50.070705499999995 16.4594477 50.8512498 L 14.413891599999998 52.8968049 L 29.089999999999996 67.5729142 C 29.770870099999996 68.2537843 30.878772599999998 68.2537843 31.559675099999996 67.5728837 L 33.3631781 65.76931010000001 C 34.25399 64.87850200000001 34.3770369 63.49295820000001 33.6558455 62.474765900000016 C 32.402851 60.70588700000002 31.6052245 58.765999000000015 31.409848999999998 57.012447500000015 C 31.205139 55.174614100000014 31.6375674 53.63249600000002 32.6612547 52.541473500000016 C 32.6942595 52.50628670000002 32.7278936 52.47152720000002 32.7621229 52.43729790000002 C 33.8581732 51.34124760000002 35.4402502 50.87363060000002 37.3373373 51.08496100000002 C 39.0909193 51.28030400000002 41.0307768 52.07789620000002 42.799686200000004 53.33092510000002 C 42.926971200000004 53.42106640000002 43.059978300000004 53.49806220000002 43.1970594 53.56198510000002 C 43.2656171 53.59392940000002 43.3351324 53.622596800000025 43.4054792 53.64805610000002 C 44.320091000000005 53.978988700000016 45.370460300000005 53.76202780000002 46.0942342 53.03825770000002 L 47.897804 51.23475280000002 C 48.5786741 50.55388270000002 48.5786741 49.445980200000015 47.897804 48.76511020000002 L 46.0943639 46.961605300000016 C 45.847812399999995 46.715053800000014 45.6411817 46.442745400000014 45.475234699999994 46.15299250000002 C 45.41991779999999 46.05642730000002 45.36910219999999 45.95794700000002 45.322856599999994 45.85780740000002 C 45.25347489999999 45.70758460000002 45.19431659999999 45.55375310000002 45.145492299999994 45.39734290000002 C 45.11291859999999 45.29306430000002 45.08491109999999 45.18759940000002 45.06157279999999 45.08130290000002 C 44.839648999999994 44.07158690000002 45.034030699999995 42.98572950000002 45.66806009999999 42.09058020000002 C 47.260562699999994 39.84236550000002 47.95788549999999 37.49530430000002 47.68200279999999 35.69176890000002 C 47.55660609999999 34.87192940000002 47.23014049999999 34.16444800000002 46.69525889999999 33.62956260000002 C 44.9837494 31.9180527 41.5044518 32.340519 38.2343063 34.656826 z M 26.7154961 50.9258995 C 27.331152 51.5415535 27.3311196 52.5432281 26.7154961 53.1588516 L 24.0521317 55.822216 C 23.4364758 56.4378738 22.4348011 56.4379043 21.8191452 55.8222503 L 19.155782700000003 53.1588859 C 18.5401592 52.5432624 18.5401592 51.5415534 19.1558151 50.9258994 L 21.8191795 48.262535 C 22.4348011 47.6469115 23.4365101 47.6469115 24.0521316 48.262535 L 26.7154961 50.9258995 z M 42.7404976 35.9028015 C 41.4381142 36.402694700000005 40.4218407 37.434528300000004 39.245380399999995 38.140190100000005 C 36.65613559999999 39.61292650000001 33.175914799999994 39.143589000000006 31.043230099999995 37.0582428 C 30.974342399999994 37.0032578 30.748775499999994 36.7680893 30.718187399999994 36.745315600000005 C 30.493118399999993 36.5228959 29.796194099999994 36.428581300000005 29.523553899999996 36.66315470000001 C 28.959207599999996 37.048607000000004 26.904020399999997 38.995285100000004 26.313091299999996 39.345485800000006 C 25.831537299999997 39.61564270000001 25.315191299999995 39.34962470000001 26.006355299999996 38.580001900000006 C 26.934507399999994 37.546383000000006 28.091503199999995 36.366348300000006 28.774326299999995 35.7180863 C 29.486942299999995 34.934959500000005 30.807996699999997 34.784504000000005 31.697286599999995 35.4488907 C 33.06905749999999 36.7633248 34.909404699999996 37.5386048 36.83022689999999 37.32724 C 38.92176059999999 37.2117767 40.49797819999999 35.5057259 42.57283019999999 35.2849274 C 43.2660789 35.211174 43.3503304 35.6947823 42.7404976 35.9028015 z" stroke-linecap="round" />
</g>
		<g transform="matrix(2.319604755234301 0 0 2.3196047552343013 -0.00004186726698662824 43.11872538649445)"  >
<path style="stroke: none; stroke-width: 1; stroke-dasharray: none; stroke-linecap: butt; stroke-dashoffset: 0; stroke-linejoin: miter; stroke-miterlimit: 4; fill: rgb(0,208,194); fill-rule: nonzero; opacity: 1;"  paint-order="stroke"  transform=" translate(-49.9999819502477, -68.58882431249998)" d="M 62.4748993 66.3442841 C 60.705955499999995 67.5972748 58.7661324 68.3949051 57.0125465 68.59024819999999 C 55.2340011 68.78830729999999 53.7323341 68.38970959999999 52.6484985 67.43603519999999 C 52.5762329 67.37243659999999 52.5058555 67.3064347 52.4373321 67.23790749999999 C 51.3412818 66.14185339999999 50.873661 64.559784 51.0849609 62.66265879999999 C 51.2803039 60.90907679999999 52.0779304 58.96925359999999 53.330925 57.200309899999986 C 54.052146900000004 56.182148099999985 53.9291 54.796608099999986 53.0382919 53.90579619999998 L 51.234787 52.102226399999985 C 50.5539169 51.421356299999985 49.446014399999996 51.421356299999985 48.7651444 52.102226399999985 L 46.9616738 53.90569699999998 C 46.7973138 54.070056999999984 46.6214715 54.21670549999998 46.4366875 54.345344699999984 C 46.3442955 54.40966429999998 46.2496529 54.469482599999985 46.1530571 54.52482999999999 C 45.4568596 54.923626099999986 44.660263099999995 55.08675779999999 43.8797493 55.005786999999984 C 43.2528076 54.940738799999984 42.6362877 54.718483099999986 42.0906487 54.33200079999998 C 39.8423996 52.739467699999985 37.4953042 52.04211049999998 35.6917344 52.31796269999998 C 34.8718987 52.44335559999998 34.1644135 52.76982119999998 33.6295281 53.30470659999998 C 31.9180184 55.01621629999998 32.340519 58.49554449999998 34.6568909 61.76575849999998 C 35.724773400000004 63.27325059999998 35.545517000000004 65.32185359999998 34.230621400000004 66.63674929999998 L 34.230552700000004 66.63681799999998 L 32.42708210000001 68.44028479999997 C 31.74617960000001 69.12119299999998 31.74617960000001 70.22909549999997 32.427047800000004 70.90996559999998 L 40.0485345 78.53144839999997 L 40.6132775 77.96670539999997 C 41.1346894 77.44529729999996 41.9830933 77.44525919999997 42.5045396 77.96670539999997 L 44.5014306 79.96360019999997 C 45.0228768 80.48504639999997 45.022842499999996 81.33345039999998 44.5014306 81.85485839999997 L 43.9366876 82.41960139999998 L 46.53891 85.02182769999997 L 48.0201875 83.54055019999997 C 48.8007318 82.76000209999997 50.0707399 82.76004029999997 50.8512498 83.54055019999997 L 52.8967744 85.58607479999996 L 67.5728837 70.90996549999997 C 68.25375380000001 70.22909539999996 68.2538148 69.12125399999996 67.5729142 68.44035339999996 L 65.7694093 66.63691709999996 C 64.8786011 65.746109 63.4930573 65.6230621 62.4748993 66.3442841 z M 36.7453156 69.2818069 C 36.522926399999996 69.5069122 36.4286156 70.20383450000001 36.6631852 70.47647850000001 C 37.048607000000004 71.04078670000001 38.9953194 73.09600820000001 39.3455201 73.68693530000002 C 39.6156426 74.16845690000001 39.349689600000005 74.68480670000001 38.5800362 73.99367510000002 C 37.5464173 73.06552110000001 36.3663826 71.90852340000002 35.7181206 71.22570020000002 C 34.9349938 70.51308420000002 34.7845383 69.19203170000002 35.4489212 68.30274180000002 C 36.7633553 66.93097670000002 37.5386696 65.09059120000002 37.3272743 63.16980340000002 C 37.2118072 61.07826590000002 35.5057602 59.50205210000002 35.2849273 57.42716580000002 C 35.2112083 56.73394760000002 35.6947822 56.649669500000016 35.9028358 57.25952890000002 C 36.402729 58.56191610000002 37.4345283 59.57815530000002 38.1402244 60.75464990000002 C 39.6129608 63.34389470000002 39.1436195 66.82411940000001 37.0582733 68.95680220000001 C 37.0032921 69.0256882 36.7680893 69.2512207 36.7453156 69.2818069 z M 55.8222504 75.9478989 C 56.4378739 76.5635224 56.437938700000004 77.5652314 55.8222809 78.1808854 L 53.158920300000005 80.844246 C 52.54329680000001 81.4598695 51.541553500000006 81.459839 50.9259338 80.8442155 L 48.262599900000005 78.18088540000001 C 47.6469802 77.56526190000001 47.646945900000006 76.56352240000001 48.262569400000004 75.94789890000001 L 50.9259338 73.28453070000002 C 51.5415878 72.66887670000001 52.5432968 72.66894540000001 53.158920300000005 73.28456880000002 L 55.8222504 75.9478989 z" stroke-linecap="round" />
</g>
		<g transform="matrix(2.319604755234301 0 0 2.3196047552343013 43.11874966976285 0.0000590934058664061)"  >
<path style="stroke: none; stroke-width: 1; stroke-dasharray: none; stroke-linecap: butt; stroke-dashoffset: 0; stroke-linejoin: miter; stroke-miterlimit: 4; fill: rgb(0,134,135); fill-rule: nonzero; opacity: 1;"  paint-order="stroke"  transform=" translate(-68.5888348312095, -50.000025425194195)" d="M 68.4403839 32.4271164 L 66.6368484 34.230720500000004 C 65.7460403 35.121528600000005 65.6229629 36.5070381 66.34418480000001 37.5251961 C 67.5971755 39.294075 68.3948364 41.2339325 68.5902099 42.987484 C 68.77592460000001 44.6548996 68.4372405 46.078907 67.6083373 47.1434441 C 67.5531157 47.214416500000006 67.4956817 47.283767700000006 67.4360656 47.351532000000006 C 67.3724746 47.42379760000001 67.3064346 47.49414060000001 67.2379073 47.562664000000005 C 66.1418532 48.6587181 64.5598143 49.1263694 62.6626586 48.915035200000005 C 60.9090766 48.719692200000004 58.969287800000004 47.92210000000001 57.2003097 46.669071100000004 C 56.1821479 45.9478492 54.7966423 46.07092660000001 53.9058303 46.9617385 L 52.1022605 48.7652434 C 51.4213904 49.4461135 51.4213561 50.5539817 52.1022605 51.234886 L 53.9057311 53.0383566 C 54.0700873 53.2027128 54.2167052 53.3785246 54.345375 53.5633429 C 54.409694599999995 53.6557349 54.4695129 53.7503775 54.5248298 53.846938900000005 C 55.2439651 55.10241680000001 55.1996421 56.6844595 54.332035 57.909381700000004 C 52.015628799999995 61.17956530000001 51.593132 64.65888960000001 53.3047408 66.3704985 C 53.411727799999994 66.47749309999999 53.525604099999995 66.5761412 53.6459006 66.66644269999999 C 53.766200899999994 66.75682049999999 53.8929213 66.83891279999999 54.0255965 66.9128035 C 54.1416587 66.9774168 54.262287 67.03574359999999 54.3871535 67.0878523 C 56.259941 67.869087 59.0832595 67.24336989999999 61.7658232 65.34317 C 63.2734488 64.2753599 65.3219832 64.4546126 66.6368483 65.7694777 L 68.4403227 67.57294449999999 C 69.1212233 68.2538527 70.22905709999999 68.253784 70.9099272 67.572914 L 78.53141769999999 59.951431199999995 L 77.96670519999999 59.386718699999996 C 77.44529709999999 58.8653068 77.44529709999999 58.016937199999994 77.96673569999999 57.495490999999994 L 79.9636305 55.498596199999994 C 80.4850767 54.977153799999996 81.3334501 54.977153799999996 81.8548582 55.49856569999999 L 82.4195707 56.06327439999999 L 85.0217893 53.46105199999999 L 83.54055 51.97980889999999 C 82.7600401 51.19929899999999 82.7600401 49.92925649999999 83.54055 49.14874659999999 L 85.58607459999999 47.10322199999999 L 70.909996 32.4271469 C 70.2290955 31.7462463 69.1212921 31.746212 68.4403839 32.4271164 z M 73.9937057 61.4199944 C 73.0655212 62.453579 71.9085617 63.633648 71.2257385 64.2819138 C 70.51308440000001 65.06500249999999 69.19206240000001 65.2154923 68.3027801 64.5511094 C 66.9310073 63.2366715 65.0906295 62.4613572 63.169837900000005 62.6727563 C 61.0783004 62.7882234 59.502082800000004 64.4942704 57.4272003 64.71510330000001 C 56.7339477 64.78878800000001 56.649700100000004 64.30525220000001 57.259563400000005 64.09719100000001 C 58.5619506 63.59730160000001 59.578189800000004 62.56550230000001 60.75468060000001 61.85980620000001 C 63.343929300000006 60.387069800000006 66.82415010000001 60.85640730000001 68.95683290000001 62.94175350000001 C 69.02571870000001 62.99673850000001 69.25125120000001 63.231937500000015 69.28184510000001 63.25471510000001 C 69.50694280000002 63.47710050000001 70.20387270000002 63.57141510000001 70.47650910000002 63.336841700000015 C 71.04082490000002 62.95141990000001 73.09604650000001 61.00471130000002 73.68697360000002 60.654510600000016 C 74.168457 60.3843536 74.6848373 60.650341 73.9937057 61.4199944 z M 80.8442459 46.8410759 C 81.4598694 47.4566994 81.4598694 48.4584732 80.8442459 49.0740967 L 78.18091580000001 51.7374268 C 77.56529230000001 52.3530503 76.5635223 52.3530503 75.9478988 51.7374268 L 73.28453060000001 49.074066200000004 C 72.66890710000001 48.458442700000006 72.66890710000001 47.456668900000004 73.28453060000001 46.841045400000006 L 75.9478607 44.1777153 C 76.5634842 43.562091800000005 77.5652618 43.562091800000005 78.1808853 44.1777153 L 80.8442459 46.8410759 z" stroke-linecap="round" />
</g>
		<g transform="matrix(2.319604755234301 0 0 2.3196047552343013 0.00009533735516242814 -43.118753611042365)"  >
<path style="stroke: none; stroke-width: 1; stroke-dasharray: none; stroke-linecap: butt; stroke-dashoffset: 0; stroke-linejoin: miter; stroke-miterlimit: 4; fill: rgb(0,208,194); fill-rule: nonzero; opacity: 1;"  paint-order="stroke"  transform=" translate(-50.00004110024808, -31.4111634187905)" d="M 55.4986305 18.1452026 L 56.063342999999996 17.580492 L 53.461051899999994 14.9782047 L 51.979808799999994 16.4594478 C 51.199298899999995 17.239957699999998 49.9292908 17.2399921 49.148746499999994 16.4594478 L 47.10319139999999 14.413891699999999 L 32.42711639999999 29.0899657 C 31.74621199999999 29.7708701 31.74624629999999 30.878738300000002 32.42714689999999 31.5596427 L 34.23072049999999 33.363147600000005 C 35.12152859999999 34.253955700000006 36.50703809999999 34.37703690000001 37.52523039999999 33.655845500000005 C 39.29417419999999 32.40278610000001 41.23399729999999 31.605224500000006 42.98754879999999 31.409849000000005 C 44.82538219999999 31.205139000000006 46.36753459999999 31.637534900000006 47.45855329999999 32.66122420000001 C 47.49374389999999 32.694225100000004 47.52846909999999 32.72789370000001 47.56269839999999 32.76212290000001 C 48.65874869999999 33.85817320000001 49.12639999999999 35.440215900000005 48.915035299999985 37.33733730000001 C 48.719692299999984 39.09091930000001 47.922134499999984 41.03074250000001 46.66907119999998 42.79968620000001 C 45.94788359999998 43.81788230000001 46.070995299999986 45.203422300000014 46.961772899999985 46.094199900000014 L 48.765277799999986 47.89776970000001 C 49.446147899999985 48.57863980000001 50.554016099999984 48.578674100000015 51.234920399999986 47.89776970000001 L 53.038421499999984 46.09433340000001 C 54.35328659999998 44.77946830000001 56.401820999999984 44.60021180000001 57.90945039999998 45.66802570000001 C 61.179565299999986 47.98436710000001 64.65885909999999 48.40683340000001 66.37046799999999 46.69522450000001 C 66.47745499999999 46.58823370000001 66.57610309999998 46.47435730000001 66.66644269999999 46.35409520000001 C 66.75678239999999 46.23376440000001 66.8388823 46.10704400000001 66.91276529999999 45.97436500000001 C 67.94681529999998 44.11710330000001 67.36998729999999 41.09566090000001 65.34313939999998 38.23433660000001 C 64.27529119999998 36.72674540000001 64.45457429999999 34.678176600000015 65.76943939999998 33.363311500000016 L 67.57298249999998 31.559707400000015 C 68.25388309999998 30.878804900000016 68.25381439999998 29.770969100000016 67.57294439999998 29.090099100000014 L 59.951430999999985 21.468580000000014 L 59.386718499999986 22.033290600000015 C 58.86530659999999 22.554702500000015 58.016936999999984 22.554702500000015 57.49552509999999 22.033290600000015 L 55.49866459999999 20.036430100000015 C 54.977253 19.5150204 54.9772186 18.6666145 55.4986305 18.1452026 z M 46.8411102 26.7155285 L 44.177745800000004 24.052166 C 43.562091800000005 23.4365101 43.562122300000006 22.4347687 44.177745800000004 21.8191452 L 46.8411102 19.155782700000003 C 47.4567337 18.5401592 48.4584732 18.540126800000003 49.074131 19.155782700000003 L 51.7374954 21.8191452 C 52.3531189 22.434768700000003 52.3530845 23.4365101 51.7374611 24.0521317 L 49.0740967 26.7154961 C 48.4584732 27.3311195 47.4567337 27.331152 46.8411102 26.7155285 z M 64.2819443 28.774292 C 65.0650406 29.4869423 65.2155228 30.8079643 64.55113990000001 31.6972523 C 63.23670580000001 33.0690232 62.46139150000001 34.9094048 62.67279060000001 36.8301926 C 62.788253900000015 38.9217301 64.49430090000001 40.497943899999996 64.71510320000002 42.572795899999996 C 64.78882600000001 43.266079 64.30525210000002 43.350296099999994 64.09722910000002 42.7404671 C 63.597332100000024 41.4380799 62.56550230000002 40.421806399999994 61.859836700000024 39.2453461 C 60.387104200000024 36.656101299999996 60.856441600000025 33.1758805 62.94178780000002 31.0431977 C 62.99677280000002 30.974308100000002 63.23193750000002 30.7487431 63.25471500000002 30.718155 C 63.47713470000002 30.493085999999998 63.57144550000002 29.796159799999998 63.33687590000002 29.5235215 C 62.95141980000002 28.9591752 61.00474550000002 26.9039861 60.65454480000002 26.3130589 C 60.38435360000002 25.8315373 60.650375300000015 25.315191300000002 61.420024800000014 26.0063229 C 62.4536133 26.9345074 63.6336823 28.0914707 64.2819443 28.774292 z" stroke-linecap="round" />
</g>
		<g transform="matrix(2.319604755234301 0 0 2.3196047552343013 0.00001907977343762468 0)"  >
<path style="stroke: none; stroke-width: 1; stroke-dasharray: none; stroke-linecap: butt; stroke-dashoffset: 0; stroke-linejoin: miter; stroke-miterlimit: 4; fill: rgb(0,134,135); fill-rule: nonzero; opacity: 1;"  paint-order="stroke"  transform=" translate(-50.000008225, -49.99999994955843)" d="M 51.7934074 74.1519775 L 49.1300392 76.8153457 C 48.9927101 76.9526748 48.9926834 77.1761245 49.1300125 77.31346119999999 L 51.793354 79.97679889999999 C 51.9306831 80.114128 52.1541366 80.11409749999999 52.2914695 79.9767684 L 54.9548339 77.3134002 C 55.092163 77.1760711 55.0921897 76.9526214 54.954860599999996 76.81529230000001 L 52.291523 74.151947 C 52.1541939 74.0146179 51.9307365 74.0146484 51.7934074 74.1519775 z M 41.480732 78.8341446 L 40.9159966 79.39888 L 40.4822999 79.8325729 L 40.0485917 80.2662811 L 39.4838868 80.8309936 C 39.440754 80.87412259999999 39.440754 80.9442901 39.4838601 80.9873962 L 41.480732 82.98426810000001 C 41.523834300000004 83.02737420000001 41.5940056 83.02737420000001 41.637138400000005 82.9842452 L 42.2018471 82.4195327 L 42.6355553 81.9858245 L 43.0692482 81.55213160000001 L 43.63398359999999 80.9873962 C 43.677112599999994 80.94426720000001 43.677112599999994 80.87409210000001 43.63401029999999 80.8309936 L 41.63713839999999 78.834114 C 41.5940323 78.7910156 41.5238609 78.7910156 41.480732 78.8341446 z M 49.0652771 95.8175735 L 47.068401300000005 97.8144454 C 47.025299000000004 97.8575515 47.025299000000004 97.927719 47.068401300000005 97.9708251 L 49.0652771 99.967697 C 49.108379400000004 100.0108031 49.178497300000004 100.0107497 49.221599600000005 99.9676436 L 51.2184754 97.9707717 C 51.2616044 97.9276427 51.2616578 97.857521 51.2185555 97.8144225 L 49.2216836 95.8175506 C 49.1785774 95.7744446 49.1084061 95.7744446 49.0652771 95.8175735 z M 13.1128235 52.4630966 L 13.546518299999999 52.0293999 L 15.5920648 49.9838562 C 15.8943023 49.6816177 15.8943023 49.1898231 15.5920648 48.8875885 L 14.1107959 47.4063187 L 13.6771011 46.972622 L 13.2433929 46.5389138 L 11.762124 45.057647800000005 C 11.4598865 44.755409300000004 10.9680938 44.755409300000004 10.6658563 45.057647800000005 L 6.8359155 48.88758860000001 C 6.5336775 49.189823200000006 6.5336775 49.681617800000005 6.8359155 49.98385630000001 L 10.6658563 53.81379710000001 C 10.9680938 54.11603170000001 11.4598865 54.11603170000001 11.762124 53.81379710000001 L 12.6791152 52.89680490000001 L 13.1128235 52.4630966 z M 9.7154474 41.6138916 L 12.1285333 39.200805700000004 C 12.230507800000002 39.098831200000006 12.230507800000002 38.932926200000004 12.1285333 38.83095170000001 L 9.7154474 36.41786580000001 C 9.6134729 36.31589130000001 9.4475689 36.31589130000001 9.3455944 36.41786580000001 L 6.932508899999999 38.83095170000001 C 6.830533899999999 38.932926200000004 6.830533899999999 39.098831200000006 6.932508899999999 39.200805700000004 L 9.3455944 41.6138916 C 9.4475689 41.7158661 9.6134729 41.7158661 9.7154474 41.6138916 z M 48.2066727 25.8481026 L 50.8700638 23.1847077 C 51.0073929 23.047378600000002 51.0073662 22.8239232 50.8700371 22.6865922 L 48.2066727 20.0232259 C 48.069313099999995 19.885870099999998 47.8458596 19.8858415 47.7085305 20.0231725 L 45.0451356 22.6865655 C 44.9078065 22.8238946 44.9078332 23.0473519 45.045189 23.1847077 L 47.7085572 25.8480759 C 47.8458862 25.985405 48.0693398 25.9854317 48.2066727 25.8481026 z M 58.5193176 21.1659069 L 59.0840263 20.6011982 L 59.5177765 20.16745 L 59.951484699999995 19.733741799999997 L 60.51619339999999 19.169033099999996 C 60.55929569999999 19.125928899999998 60.55929569999999 19.055757599999996 60.51616669999999 19.012626699999995 L 58.519317599999994 17.015781499999996 C 58.47618859999999 16.972650599999994 58.406017299999995 16.972650599999994 58.36291119999999 17.015754799999996 L 57.79820629999999 17.580461599999996 L 57.36449809999999 18.014169799999998 L 56.93074789999999 18.447919999999996 L 56.366039199999996 19.012626799999996 C 56.322936899999995 19.055730999999994 56.322990299999994 19.125848899999998 56.366119299999994 19.168979799999995 L 58.36296839999999 21.165824999999995 C 58.4060974 21.2089558 58.4762154 21.2090092 58.5193176 21.1659069 z M 50.7783699 0.0323245 L 48.7815514 2.0291436 C 48.738445299999995 2.0722475 48.738445299999995 2.1424189 48.7815781 2.1855498 L 50.7784233 4.182396 C 50.8215523 4.2255264 50.8917236 4.2255264 50.9348297 4.1824227 L 52.931648200000005 2.1856033999999998 C 52.974750500000006 2.1424996999999997 52.974750500000006 2.0723280999999996 52.931621500000006 2.0291974999999995 L 50.9347763 0.032351399999999586 C 50.8916435 -0.0107793 50.8214722 -0.0107793 50.7783699 0.0323245 z M 88.2379303 46.1862564 L 87.320961 47.1032181 L 86.8872528 47.5369263 L 86.4535065 47.970676499999996 L 84.40798190000001 50.016197299999995 C 84.10577400000001 50.318405199999994 84.10577400000001 50.810146399999994 84.40798190000001 51.112354399999994 L 85.88922880000001 52.593597499999994 L 86.32297510000001 53.02734769999999 L 86.7566833 53.46105589999999 L 88.23793020000001 54.94229519999999 C 88.54019160000001 55.24456039999999 89.03192890000001 55.24456039999999 89.3341369 54.94235239999999 L 93.1640777 51.11241159999999 C 93.4663467 50.81014639999999 93.4663467 50.31840529999999 93.1640777 50.01614389999999 L 89.334137 46.186203 C 89.031929 45.8839912 88.5401917 45.8839912 88.2379303 46.1862564 z M 90.2846298 58.3861885 L 87.8715744 60.7992439 C 87.7695999 60.9012184 87.7695999 61.06707 87.8715744 61.1690445 L 90.2846298 63.5821037 C 90.3866043 63.684078199999995 90.55245210000001 63.684078199999995 90.65442660000001 63.5821037 L 93.0674896 61.1690445 C 93.1694641 61.06707 93.1694641 60.9012184 93.0674896 60.7992439 L 90.65442660000001 58.3861885 C 90.5524521 58.284214 90.3866043 58.284214 90.2846298 58.3861885 z" stroke-linecap="round" />
</g>
		<g transform="matrix(2.319604755234301 0 0 2.3196047552343013 0 -0.00000546450434057988)"  >
<path style="stroke: none; stroke-width: 1; stroke-dasharray: none; stroke-linecap: butt; stroke-dashoffset: 0; stroke-linejoin: miter; stroke-miterlimit: 4; fill: rgb(0,208,194); fill-rule: nonzero; opacity: 1;"  paint-order="stroke"  transform=" translate(-49.999999999558426, -49.999997593767276)" d="M 48.8876419 84.4079819 L 47.4063721 85.8892517 L 46.9726754 86.3229523 L 46.5389672 86.7566605 L 45.057701200000004 88.2379303 C 44.7554627 88.5401611 44.755436 89.031929 45.057647800000005 89.334137 L 48.88758860000001 93.1640778 C 49.18985000000001 93.4663468 49.681617800000005 93.4663163 49.98385630000001 93.1640778 L 53.81379710000001 89.334137 C 54.11603170000001 89.0319062 54.11605850000001 88.5401383 53.81379710000001 88.2378693 L 52.896831600000006 87.3209076 L 52.46312340000001 86.8871994 L 52.02937320000001 86.4534531 L 49.98385620000001 84.40792850000001 C 49.6816444 84.1057205 49.1898804 84.105751 48.8876419 84.4079819 z M 38.8310051 87.871521 L 36.4179192 90.2845993 C 36.3159447 90.3865814 36.315918 90.5524521 36.4178925 90.6544266 L 38.8309517 93.06748959999999 C 38.9329262 93.16946409999998 39.0988045 93.16943359999999 39.200779 93.0674591 L 41.613864899999996 90.6543732 C 41.71583939999999 90.5523987 41.71586609999999 90.3865204 41.613891599999995 90.2845459 L 39.200832399999996 87.8714905 C 39.0988579 87.769516 38.9329796 87.7695465 38.8310051 87.871521 z M 23.1847343 54.954834 L 25.8481025 52.2914696 C 25.9854316 52.1541367 25.9854316 51.9306565 25.8481025 51.7933274 L 23.1847343 49.1299592 C 23.0474052 48.9926301 22.8239231 48.9926301 22.6865921 49.1299592 L 20.0232258 51.7933274 C 19.885869999999997 51.930683200000004 19.885869999999997 52.1541634 20.0231991 52.291496300000006 L 22.6865654 54.954860700000005 C 22.8238945 55.0921898 23.0473785 55.0921898 23.1847343 54.954834 z M 19.1690598 43.6339569 L 21.165907 41.6371117 C 21.209037900000002 41.593978899999996 21.209037900000002 41.5238076 21.165907 41.4806786 L 20.6011716 40.9159432 L 20.1674768 40.4822465 L 19.733768599999998 40.048538300000004 L 19.169059899999997 39.4838334 C 19.125928999999996 39.4407006 19.055757699999997 39.4407006 19.012626799999996 39.4838334 L 17.015781599999997 41.480678600000005 C 16.972650699999996 41.523807600000005 16.972650699999996 41.5939789 17.015781599999997 41.637111700000005 L 17.580490299999997 42.2018204 L 18.0141985 42.6355286 L 18.4478933 43.0692215 L 19.0126268 43.6339569 C 19.0557575 43.6770859 19.1259289 43.6770859 19.1690598 43.6339569 z M 2.0291975 47.0683746 L 0.03235140000000003 49.0652237 C -0.01077929999999997 49.1083527 -0.01077929999999997 49.178523999999996 0.03232450000000003 49.2216263 L 2.0291975 51.218502099999995 C 2.0723281 51.261631099999995 2.1424997 51.261631099999995 2.1856304 51.218502099999995 L 4.1824766 49.221652999999996 C 4.225607 49.178523999999996 4.225607 49.1083527 4.1824766 49.0652237 L 2.1856035 47.0683479 C 2.1424997 47.0252457 2.0723281 47.0252457 2.0291975 47.0683746 z M 50.0161438 6.8359156 L 46.186203 10.6658564 C 45.8839912 10.968067199999998 45.884017899999996 11.4598322 46.1862564 11.7620697 L 47.1032448 12.6790609 L 47.536953 13.11277 L 47.970649699999996 13.546464799999999 L 50.01619719999999 15.5920104 C 50.31843179999999 15.8942489 50.81019969999999 15.8942756 51.11241149999999 15.5920648 L 52.59365079999999 14.110822599999999 L 53.02740099999999 13.677074399999999 L 53.46110919999999 13.243366199999999 L 54.94235229999999 11.762123999999998 C 55.24461369999999 11.459858799999997 55.24458689999999 10.968093799999998 54.94235229999999 10.665856299999998 L 51.112411499999986 6.835915499999998 C 50.810173 6.5336776 50.3184052 6.5336509 50.0161438 6.8359156 z M 60.7992172 6.9324818 L 58.3861618 9.34554 C 58.284187300000006 9.4475154 58.284214000000006 9.6133918 58.3861885 9.7153663 L 60.7992706 12.1284522 C 60.9012489 12.2304267 61.0671234 12.2304534 61.1690979 12.1284789 L 63.582157099999996 9.7154206 C 63.68413159999999 9.613446099999999 63.684104899999994 9.447568799999999 63.5821304 9.3455943 L 61.1690445 6.9325088 C 61.06707 6.830534 60.9011917 6.8305073 60.7992172 6.9324818 z M 76.8153152 45.0451622 L 74.1519775 47.7085037 C 74.0146484 47.845832800000004 74.0146484 48.0692596 74.1519775 48.206588700000005 L 76.8153686 50.869983600000005 C 76.9526977 51.00731270000001 77.1761245 51.00731270000001 77.3134613 50.869983600000005 L 79.976799 48.2066421 C 80.1141281 48.069313 80.1141281 47.8458862 79.976799 47.7085571 L 77.3134003 45.0451622 C 77.1760712 44.9078331 76.9526443 44.9078331 76.8153152 45.0451622 z M 80.8310699 56.366066 L 78.834198 58.362941799999994 C 78.7910919 58.406044099999995 78.7910385 58.476161999999995 78.8341446 58.519264299999996 L 79.3988495 59.08397299999999 L 79.83260349999999 59.51772319999999 L 80.26631169999999 59.95143139999999 L 80.83101659999998 60.51614009999999 C 80.87412269999999 60.55924239999999 80.94429019999998 60.55924239999999 80.98739629999999 60.51614009999999 L 82.98426819999999 58.51926429999999 C 83.02737429999999 58.47616199999999 83.02737429999999 58.40599069999999 82.98426819999999 58.36288459999999 L 82.4195633 57.798179699999984 L 81.9858551 57.364471499999986 L 81.5521011 56.93072129999999 L 80.9873962 56.36601259999999 C 80.9442902 56.3229103 80.874176 56.3229637 80.8310699 56.366066 z M 97.8144989 48.7815208 L 95.817627 50.7783966 C 95.7745209 50.8214989 95.7745209 50.8916702 95.817627 50.9347763 L 97.8144455 52.931594800000006 C 97.85755160000001 52.97469710000001 97.9277191 52.97469710000001 97.97082520000001 52.931594800000006 L 99.96769710000001 50.93471900000001 C 100.01080320000001 50.89161670000001 100.01074980000001 50.82149880000001 99.96764370000001 50.77839650000001 L 97.97082520000001 48.781578 C 97.9277191 48.738472 97.857605 48.7384186 97.8144989 48.7815208 z" stroke-linecap="round" />
</g>
</g>
</g>
<g transform="matrix(1.9211538461538462 0 0 1.9211538461538462 639.0291616028711 720.2664771496236)" id="text-logo"  >
<g style=""  paint-order="stroke"   >
		<g transform="matrix(1 0 0 1 -5.684342e-14 0)" id="text-logo-path-0"  >
<path style="stroke: none; stroke-width: 0; stroke-dasharray: none; stroke-linecap: butt; stroke-dashoffset: 0; stroke-linejoin: miter; stroke-miterlimit: 4; fill: rgb(0,134,135); fill-rule: nonzero; opacity: 1;"  paint-order="stroke"  transform=" translate(-268.945, 18.2)" d="M 19.92 0 L 29.48 0 L 37.96 -20.23 L 37.96 0 L 46.8 0 L 46.8 -36.4 L 35.88 -36.4 L 24.7 -9.67 L 13.52 -36.4 L 2.6 -36.4 L 2.6 0 L 11.44 0 L 11.44 -20.23 Z M 73.22 0.52 C 85.07 0.52 91 -3.8 91 -12.43 L 82.16 -12.43 C 82.16 -8.68 78 -6.76 73.22 -6.76 C 66.51 -6.76 63.28 -10.19 63.28 -18.25 C 63.28 -26 66.3 -29.64 73.22 -29.64 C 78.26 -29.64 82.21 -28.08 82.21 -23.92 L 91.05 -23.92 C 90.43 -32.6 83.62 -36.92 73.22 -36.92 C 60.53 -36.92 54.44 -31.2 54.44 -18.25 C 54.44 -5.56 60.16 0.52 73.22 0.52 Z M 127.92 0.52 C 136.6 0.52 141.13 -1.35 143 -4.73 C 143.88 -6.45 144.35 -8.63 144.35 -11.34 C 144.35 -18.41 141.08 -21.84 131.87 -21.84 L 127.92 -21.84 C 124.28 -21.84 122.2 -21.84 121.16 -22.88 C 120.69 -23.35 120.43 -24.18 120.43 -25.32 C 120.43 -27.66 121.06 -28.76 123.19 -29.28 C 124.23 -29.54 125.84 -29.64 127.97 -29.64 C 131.04 -29.64 132.6 -29.38 133.64 -27.77 C 134.16 -26.99 134.42 -25.74 134.42 -24.13 L 143.31 -24.13 C 143.31 -33.7 138.11 -36.92 127.97 -36.92 C 119.29 -36.92 114.76 -35.05 112.94 -31.67 C 112.01 -29.95 111.54 -27.77 111.54 -25.06 C 111.54 -17.99 114.82 -14.56 124.02 -14.56 L 127.92 -14.56 C 131.4 -14.56 133.64 -14.35 134.73 -13.31 C 135.2 -12.79 135.46 -12.06 135.46 -11.08 C 135.46 -8.74 134.84 -7.7 132.76 -7.18 C 131.66 -6.92 130.05 -6.76 127.92 -6.76 C 124.18 -6.76 122.3 -7.07 121.26 -8.63 C 120.69 -9.41 120.43 -10.61 120.43 -12.27 L 111.54 -12.27 C 111.54 -5.67 114.09 -2.13 118.87 -0.62 C 121.21 0.16 124.23 0.52 127.92 0.52 Z M 169.31 0 L 178.88 0 L 187.36 -20.23 L 187.36 0 L 196.2 0 L 196.2 -36.4 L 185.28 -36.4 L 174.1 -9.67 L 162.92 -36.4 L 152 -36.4 L 152 0 L 160.84 0 L 160.84 -20.23 Z M 231.92 0 L 240.76 0 L 226.98 -36.4 L 217.62 -36.4 L 203.84 0 L 212.68 0 L 215.23 -6.76 L 229.37 -6.76 Z M 226.62 -14.04 L 217.98 -14.04 L 222.3 -25.43 Z M 248.4 0 L 257.24 0 L 257.24 -11.96 L 263.85 -11.96 L 270.76 0 L 280.12 0 L 272.74 -12.79 C 277.21 -14.35 279.45 -18.2 279.45 -24.28 C 279.45 -32.34 275.39 -36.4 267.28 -36.4 L 248.4 -36.4 Z M 267.23 -19.24 L 257.24 -19.24 L 257.24 -29.12 L 267.23 -29.12 C 269.36 -29.12 270.61 -27.51 270.61 -24.23 C 270.61 -20.9 269.46 -19.24 267.23 -19.24 Z M 299.21 0 L 308.05 0 L 308.05 -29.12 L 319.49 -29.12 L 319.49 -36.4 L 287.77 -36.4 L 287.77 -29.12 L 299.21 -29.12 Z M 339.98 0 L 362.18 0 C 369.88 0 373.62 -3.54 373.62 -11.44 C 373.62 -16.54 371.96 -19.92 368.68 -21.58 C 370.24 -23.14 371.02 -25.22 371.02 -27.82 C 371.02 -33.07 367.59 -36.4 362.44 -36.4 L 339.98 -36.4 Z M 362.18 -7.28 L 348.82 -7.28 L 348.82 -15.6 L 362.18 -15.6 C 364 -15.6 364.78 -14.35 364.78 -11.44 C 364.78 -8.68 364 -7.28 362.18 -7.28 Z M 360.46 -22.88 L 348.82 -22.88 L 348.82 -29.12 L 360.46 -29.12 C 361.5 -29.12 362.18 -27.82 362.18 -26 C 362.18 -24.13 361.45 -22.88 360.46 -22.88 Z M 395.3 -14.04 L 395.3 0 L 404.14 0 L 404.14 -14.04 L 418.18 -36.4 L 408.82 -36.4 L 399.72 -21.89 L 390.62 -36.4 L 381.26 -36.4 Z M 437.27 0 L 446.11 0 L 446.11 -29.12 L 457.55 -29.12 L 457.55 -36.4 L 425.83 -36.4 L 425.83 -29.12 L 437.27 -29.12 Z M 465.19 0 L 494.83 0 L 494.83 -7.28 L 474.03 -7.28 L 474.03 -14.56 L 489.63 -14.56 L 489.63 -21.84 L 474.03 -21.84 L 474.03 -29.12 L 494.83 -29.12 L 494.83 -36.4 L 465.19 -36.4 Z M 518.86 0.52 C 527.54 0.52 532.06 -1.35 533.94 -4.73 C 534.82 -6.45 535.29 -8.63 535.29 -11.34 C 535.29 -18.41 532.01 -21.84 522.81 -21.84 L 518.86 -21.84 C 515.22 -21.84 513.14 -21.84 512.1 -22.88 C 511.63 -23.35 511.37 -24.18 511.37 -25.32 C 511.37 -27.66 511.99 -28.76 514.12 -29.28 C 515.16 -29.54 516.78 -29.64 518.91 -29.64 C 521.98 -29.64 523.54 -29.38 524.58 -27.77 C 525.1 -26.99 525.36 -25.74 525.36 -24.13 L 534.25 -24.13 C 534.25 -33.7 529.05 -36.92 518.91 -36.92 C 510.22 -36.92 505.7 -35.05 503.88 -31.67 C 502.94 -29.95 502.48 -27.77 502.48 -25.06 C 502.48 -17.99 505.75 -14.56 514.96 -14.56 L 518.86 -14.56 C 522.34 -14.56 524.58 -14.35 525.67 -13.31 C 526.14 -12.79 526.4 -12.06 526.4 -11.08 C 526.4 -8.74 525.77 -7.7 523.69 -7.18 C 522.6 -6.92 520.99 -6.76 518.86 -6.76 C 515.11 -6.76 513.24 -7.07 512.2 -8.63 C 511.63 -9.41 511.37 -10.61 511.37 -12.27 L 502.48 -12.27 C 502.48 -5.67 505.02 -2.13 509.81 -0.62 C 512.15 0.16 515.16 0.52 518.86 0.52 Z" stroke-linecap="round" />
</g>
</g>
</g>
</svg>